<?xml version="1.0" encoding="UTF-8" standalone="no"?>
<!-- Created with Inkscape (http://www.inkscape.org/) -->

<svg
   width="40mm"
   height="57.599998mm"
   viewBox="0 0 40 57.599998"
   version="1.1"
   id="svg2962"
   inkscape:version="1.1.2 (1:1.1+202202050950+0a00cf5339)"
   sodipodi:docname="logo.svg"
   xmlns:inkscape="http://www.inkscape.org/namespaces/inkscape"
   xmlns:sodipodi="http://sodipodi.sourceforge.net/DTD/sodipodi-0.dtd"
   xmlns="http://www.w3.org/2000/svg"
   xmlns:svg="http://www.w3.org/2000/svg">
  <sodipodi:namedview
     id="namedview2964"
     pagecolor="#505050"
     bordercolor="#eeeeee"
     borderopacity="1"
     inkscape:pageshadow="0"
     inkscape:pageopacity="0"
     inkscape:pagecheckerboard="0"
     inkscape:document-units="mm"
     showgrid="false"
     width="40mm"
     inkscape:zoom="1.7184441"
     inkscape:cx="107.94649"
     inkscape:cy="203.09069"
     inkscape:window-width="1872"
     inkscape:window-height="1023"
     inkscape:window-x="48"
     inkscape:window-y="27"
     inkscape:window-maximized="1"
     inkscape:current-layer="layer1" />
  <defs
     id="defs2959" />
  <g
     inkscape:label="Calque 1"
     inkscape:groupmode="layer"
     id="layer1">
    <g
       id="g3067"
       transform="matrix(0.80000001,0,0,0.79959277,-0.68060508,-0.73540239)">
      <g
         id="g30004"
         transform="matrix(4.9454775,0,0,4.9454775,1301.1149,-338.19516)"
         inkscape:export-filename="/home/sab/Bureau/logo.png"
         inkscape:export-xdpi="300"
         inkscape:export-ydpi="300">
        <path
           id="path29992"
           style="fill:none;stroke:#d0e7dd;stroke-width:0.0968713;stroke-linecap:round;stroke-miterlimit:4;stroke-dasharray:none;stroke-opacity:1"
           d="m -254.94443,68.638693 h 1.2737 c 0.25679,0 0.46353,0.206737 0.46353,0.463535 v 8.540731 c 0,0.256798 -0.20674,0.463535 -0.46353,0.463535 h -1.2737 c -0.2568,0 -0.46354,-0.206737 -0.46354,-0.463535 v -8.540731 c 0,-0.256798 0.20674,-0.463535 0.46354,-0.463535 z m -4.78447,-0.0036 1.23034,0.329777 c 0.24804,0.06649 0.39423,0.319698 0.32779,0.567748 l -2.20977,8.249712 c -0.0664,0.248047 -0.31962,0.394218 -0.56766,0.327733 l -1.23033,-0.329775 c -0.24804,-0.06649 -0.39423,-0.319699 -0.32779,-0.567748 l 2.20977,-8.249712 c 0.0664,-0.248048 0.31962,-0.394218 0.56765,-0.327735 z m 2.31071,0.0036 h 1.27369 c 0.2568,0 0.46354,0.206737 0.46354,0.463535 v 8.540731 c 0,0.256798 -0.20674,0.463535 -0.46354,0.463535 h -1.27369 c -0.2568,0 -0.46354,-0.206737 -0.46354,-0.463535 v -8.540731 c 0,-0.256798 0.20674,-0.463535 0.46354,-0.463535 z"
           inkscape:export-filename="/home/sab/Bureau/E-commerce/pdf_info/Images/minLogo.png"
           inkscape:export-xdpi="2000"
           inkscape:export-ydpi="2000" />
        <path
           style="fill:#543b62;fill-opacity:1;stroke:#d0e7dd;stroke-width:0.0970071;stroke-linecap:round;stroke-linejoin:round;stroke-miterlimit:4;stroke-dasharray:none;stroke-opacity:1"
           d="m -262.87135,79.34281 h 10.01324"
           id="path29994" />
        <text
           xml:space="preserve"
           style="font-size:1.80475px;line-height:1.25;font-family:Poppins;-inkscape-font-specification:'Poppins, Normal';letter-spacing:0.939977px;stroke-width:0.0187994"
           x="-261.56674"
           y="81.773239"
           id="text29998"><tspan
             sodipodi:role="line"
             id="tspan29996"
             style="font-size:1.80475px;fill:#f0f0f0;fill-opacity:1;stroke-width:0.0187994"
             x="-261.56674"
             y="81.773239">book</tspan></text>
        <text
           xml:space="preserve"
           style="font-size:0.902375px;line-height:1.25;font-family:Poppins;-inkscape-font-specification:'Poppins, Normal';letter-spacing:1.25956px;stroke-width:0.0187994"
           x="-261.52222"
           y="83.128723"
           id="text30002"><tspan
             sodipodi:role="line"
             id="tspan30000"
             style="font-size:0.902375px;fill:#f0f0f0;fill-opacity:1;stroke-width:0.0187994"
             x="-261.52222"
             y="83.128723">store</tspan></text>
      </g>
    </g>
  </g>
</svg>
